<svg width="56" height="56" viewBox="0 0 56 56" fill="none" xmlns="http://www.w3.org/2000/svg">
<circle cx="28" cy="28" r="28" fill="#461799"/>
<path d="M16.4972 27.4717C16.4972 28.5802 17.3946 29.4776 18.5032 29.4776H25.8276V36.802C25.8276 37.8974 26.7118 38.808 27.8204 38.808C28.9289 38.808 29.8263 37.8974 29.8263 36.802V29.4776H37.1508C38.2461 29.4776 39.1435 28.5802 39.1435 27.4717C39.1435 26.3763 38.2461 25.4789 37.1508 25.4789H29.8263V18.1545C29.8263 17.0591 28.9289 16.1485 27.8204 16.1485C26.7118 16.1485 25.8276 17.0591 25.8276 18.1545V25.4789H18.5032C17.3946 25.4789 16.4972 26.3763 16.4972 27.4717Z" fill="white"/>
</svg>
