<svg width="355" height="52" viewBox="0 0 355 52" fill="none" xmlns="http://www.w3.org/2000/svg">
<path fill-rule="evenodd" clip-rule="evenodd" d="M20 0C8.9543 0 0 8.9543 0 20V32C0 43.0457 8.9543 52 20 52H335C346.046 52 355 43.0457 355 32V20C355 8.95431 346.046 0 335 0H177.906H20ZM177.906 0C192.02 0 199.099 0.000220023 204.999 0.000403425C212.837 0.000647035 218.596 0.000826031 236 0.00033895C219.172 3.4745 214.773 11.8806 210.523 20.0025C205.447 29.7041 200.583 39 175 39C151.111 39 147.574 30.6313 143.729 21.5336C140.009 12.7326 136.001 3.24933 113 0.00033895C124.893 0.000293721 132.428 0.000228082 139.487 0.000166588C149.53 7.90993e-05 158.61 0 177.906 0Z" fill="black"/>
</svg>
